<svg width="22" height="27" viewBox="0 0 22 27" fill="none" xmlns="http://www.w3.org/2000/svg">
<path d="M10.9029 26.4254L3.36493 18.8875C1.87409 17.3966 0.858818 15.4972 0.447503 13.4293C0.0361885 11.3614 0.247303 9.21802 1.05415 7.27013C1.861 5.32224 3.22734 3.65736 4.9804 2.48601C6.73345 1.31466 8.79448 0.689453 10.9029 0.689453C13.0112 0.689453 15.0723 1.31466 16.8253 2.48601C18.5784 3.65736 19.9447 5.32224 20.7516 7.27013C21.5584 9.21802 21.7695 11.3614 21.3582 13.4293C20.9469 15.4972 19.9316 17.3966 18.4408 18.8875L10.9029 26.4254ZM16.766 17.2126C17.9254 16.0531 18.715 14.5757 19.0349 12.9674C19.3547 11.3591 19.1905 9.692 18.5629 8.17702C17.9353 6.66204 16.8726 5.36718 15.5091 4.45616C14.1457 3.54514 12.5427 3.05889 10.9029 3.05889C9.26304 3.05889 7.66005 3.54514 6.29658 4.45616C4.93311 5.36718 3.8704 6.66204 3.24283 8.17702C2.61526 9.692 2.45101 11.3591 2.77086 12.9674C3.09071 14.5757 3.8803 16.0531 5.03976 17.2126L10.9029 23.0757L16.766 17.2126ZM10.9029 13.7185C10.2746 13.7185 9.67204 13.4689 9.22778 13.0246C8.78352 12.5804 8.53393 11.9778 8.53393 11.3495C8.53393 10.7213 8.78352 10.1187 9.22778 9.67446C9.67204 9.2302 10.2746 8.98061 10.9029 8.98061C11.5311 8.98061 12.1337 9.2302 12.5779 9.67446C13.0222 10.1187 13.2718 10.7213 13.2718 11.3495C13.2718 11.9778 13.0222 12.5804 12.5779 13.0246C12.1337 13.4689 11.5311 13.7185 10.9029 13.7185Z" fill="white"/>
</svg>
