<svg width="14" height="14" viewBox="0 0 14 14" fill="none" xmlns="http://www.w3.org/2000/svg">
<path fill-rule="evenodd" clip-rule="evenodd" d="M10.5 1.75C9.5335 1.75 8.75 2.5335 8.75 3.5V10.5C8.75 11.4665 9.5335 12.25 10.5 12.25C11.4665 12.25 12.25 11.4665 12.25 10.5C12.25 9.5335 11.4665 8.75 10.5 8.75H3.5C2.5335 8.75 1.75 9.5335 1.75 10.5C1.75 11.4665 2.5335 12.25 3.5 12.25C4.4665 12.25 5.25 11.4665 5.25 10.5V3.5C5.25 2.5335 4.4665 1.75 3.5 1.75C2.5335 1.75 1.75 2.5335 1.75 3.5C1.75 4.4665 2.5335 5.25 3.5 5.25H10.5C11.4665 5.25 12.25 4.4665 12.25 3.5C12.25 2.5335 11.4665 1.75 10.5 1.75Z" stroke="white" stroke-width="1.16667" stroke-linecap="round" stroke-linejoin="round"/>
</svg>
