<svg width="24" height="21" viewBox="0 0 24 21" fill="none" xmlns="http://www.w3.org/2000/svg">
<path d="M12.9999 11V16.585L14.8279 14.757L16.2429 16.172L11.9999 20.414L7.75689 16.172L9.17189 14.757L10.9999 16.585V11H12.9999ZM11.9999 2.2216e-08C13.7169 8.17698e-05 15.374 0.631114 16.6561 1.77312C17.9382 2.91512 18.756 4.48846 18.9539 6.194C20.1982 6.53332 21.2836 7.2991 22.0206 8.35753C22.7575 9.41595 23.099 10.6997 22.9855 11.9844C22.872 13.2691 22.3106 14.473 21.3995 15.3858C20.4883 16.2986 19.2854 16.8622 18.0009 16.978V14.964C18.4611 14.8983 18.9035 14.7416 19.3025 14.503C19.7014 14.2644 20.0488 13.9487 20.3245 13.5744C20.6001 13.2001 20.7984 12.7746 20.9078 12.3228C21.0172 11.8711 21.0355 11.402 20.9616 10.9431C20.8878 10.4841 20.7232 10.0445 20.4776 9.64985C20.232 9.25519 19.9102 8.91342 19.5311 8.64447C19.152 8.37552 18.7231 8.18479 18.2694 8.08341C17.8158 7.98203 17.3465 7.97203 16.8889 8.054C17.0455 7.32489 17.037 6.56997 16.8641 5.84455C16.6912 5.11913 16.3582 4.44158 15.8895 3.86153C15.4208 3.28147 14.8283 2.81361 14.1554 2.49219C13.4824 2.17078 12.7461 2.00397 12.0004 2.00397C11.2546 2.00397 10.5183 2.17078 9.84542 2.49219C9.1725 2.81361 8.57999 3.28147 8.1113 3.86153C7.64261 4.44158 7.3096 5.11913 7.13668 5.84455C6.96375 6.56997 6.95528 7.32489 7.11189 8.054C6.19955 7.88267 5.25651 8.08079 4.49024 8.60476C3.72396 9.12874 3.19722 9.93565 3.02589 10.848C2.85456 11.7603 3.05268 12.7034 3.57666 13.4697C4.10063 14.2359 4.90755 14.7627 5.81989 14.934L5.99989 14.964V16.978C4.71534 16.8623 3.5123 16.2989 2.60103 15.3862C1.68976 14.4735 1.12822 13.2696 1.01457 11.9848C0.900915 10.7001 1.24237 9.41628 1.97926 8.35777C2.71615 7.29926 3.8016 6.53339 5.04589 6.194C5.2436 4.48838 6.0613 2.91491 7.34347 1.77287C8.62565 0.63082 10.2829 -0.000136703 11.9999 2.2216e-08Z" fill="white"/>
</svg>
