<?xml version="1.0"?>
<svg xmlns="http://www.w3.org/2000/svg" viewBox="0 0 512 512" width="512" height="512"><g id="Outline"><path d="M483.621,230.738A23.761,23.761,0,0,0,488.678,216,24.04,24.04,0,0,0,472,193.147V88a8,8,0,0,0-5.029-7.427l-160-64a7.989,7.989,0,0,0-5.942,0l-160,64a8,8,0,0,0,0,14.855L192,115.817V144h16V122.217l93.029,37.211a8,8,0,0,0,5.942,0L400,122.217V272h8a8,8,0,0,0,8-8V115.817l40-16v93.814A24.036,24.036,0,0,0,440.678,216a23.765,23.765,0,0,0,4.934,14.579l-12.966,30.272A8,8,0,0,0,440,272h48a8,8,0,0,0,7.454-10.9ZM304,143.384,165.541,88,304,32.617l48.843,19.537L321.1,70.518a24.02,24.02,0,1,0,7.357,14.228L371.734,59.71,442.46,88ZM312.678,88a8,8,0,1,1-8-8A8.009,8.009,0,0,1,312.678,88ZM452.129,256l10.309-24.068a8,8,0,0,0-2.547-9.544,8,8,0,1,1,9.574,0,8,8,0,0,0-2.646,9.3L476.3,256Z"/><path d="M352,192H336V168H320v24H272V168H256v24H208V168H192v24H144V168H128v24H80V168H64v24H48a32.037,32.037,0,0,0-32,32v48H368V464a16.018,16.018,0,0,1-16,16H48a16.018,16.018,0,0,1-16-16V288H16V464a32.036,32.036,0,0,0,32,32H352a32.036,32.036,0,0,0,32-32V224A32.037,32.037,0,0,0,352,192ZM32,256V224a16.019,16.019,0,0,1,16-16H64v24H80V208h48v24h16V208h48v24h16V208h48v24h16V208h48v24h16V208h16a16.019,16.019,0,0,1,16,16v32Z"/><path d="M120,336h32a8,8,0,0,0,8-8V296a8,8,0,0,0-8-8H120a8,8,0,0,0-8,8v32A8,8,0,0,0,120,336Zm8-32h16v16H128Z"/><path d="M184,336h32a8,8,0,0,0,8-8V296a8,8,0,0,0-8-8H184a8,8,0,0,0-8,8v32A8,8,0,0,0,184,336Zm8-32h16v16H192Z"/><path d="M248,336h32a8,8,0,0,0,8-8V296a8,8,0,0,0-8-8H248a8,8,0,0,0-8,8v32A8,8,0,0,0,248,336Zm8-32h16v16H256Z"/><path d="M312,336h32a8,8,0,0,0,8-8V296a8,8,0,0,0-8-8H312a8,8,0,0,0-8,8v32A8,8,0,0,0,312,336Zm8-32h16v16H320Z"/><path d="M56,400H88a8,8,0,0,0,8-8V360a8,8,0,0,0-8-8H56a8,8,0,0,0-8,8v32A8,8,0,0,0,56,400Zm8-32H80v16H64Z"/><path d="M112,392a8,8,0,0,0,8,8h32a8,8,0,0,0,8-8V360a8,8,0,0,0-8-8H120a8,8,0,0,0-8,8Zm16-24h16v16H128Z"/><path d="M176,392a8,8,0,0,0,8,8h32a8,8,0,0,0,8-8V360a8,8,0,0,0-8-8H184a8,8,0,0,0-8,8Zm16-24h16v16H192Z"/><path d="M240,392a8,8,0,0,0,8,8h32a8,8,0,0,0,8-8V360a8,8,0,0,0-8-8H248a8,8,0,0,0-8,8Zm16-24h16v16H256Z"/><path d="M304,392a8,8,0,0,0,8,8h32a8,8,0,0,0,8-8V360a8,8,0,0,0-8-8H312a8,8,0,0,0-8,8Zm16-24h16v16H320Z"/><path d="M48,456a8,8,0,0,0,8,8H88a8,8,0,0,0,8-8V424a8,8,0,0,0-8-8H56a8,8,0,0,0-8,8Zm16-24H80v16H64Z"/><path d="M112,456a8,8,0,0,0,8,8h32a8,8,0,0,0,8-8V424a8,8,0,0,0-8-8H120a8,8,0,0,0-8,8Zm16-24h16v16H128Z"/><path d="M176,456a8,8,0,0,0,8,8h32a8,8,0,0,0,8-8V424a8,8,0,0,0-8-8H184a8,8,0,0,0-8,8Zm16-24h16v16H192Z"/><path d="M240,456a8,8,0,0,0,8,8h32a8,8,0,0,0,8-8V424a8,8,0,0,0-8-8H248a8,8,0,0,0-8,8Zm16-24h16v16H256Z"/></g></svg>
