<svg width="26" height="26" viewBox="0 0 26 26" fill="none" xmlns="http://www.w3.org/2000/svg">
<path d="M8.25173 9.438L11.7238 6.916C12.1136 6.63076 12.5877 6.48431 13.0704 6.5C13.6592 6.51468 14.2288 6.71245 14.7 7.06581C15.1712 7.41917 15.5206 7.91056 15.6997 8.47167C15.9012 9.10325 16.0853 9.53008 16.2522 9.75217C16.7562 10.4247 17.4101 10.9705 18.162 11.3462C18.9138 11.7219 19.7428 11.9173 20.5833 11.9167V14.0833C19.4646 14.0846 18.3594 13.8377 17.3475 13.3606C16.3356 12.8835 15.442 12.188 14.7312 11.3241L13.9761 15.6087L16.2088 17.4828L18.6171 24.0998L16.5804 24.8408L14.3704 18.7698L10.6979 15.6878C10.3965 15.4444 10.1659 15.1247 10.03 14.7619C9.89419 14.3991 9.85809 14.0066 9.92548 13.6251L10.4769 10.4997L9.74349 11.0327L7.43923 14.2047L5.6864 12.9307L8.23332 9.425L8.25173 9.438ZM14.625 5.95833C14.0503 5.95833 13.4992 5.73006 13.0929 5.32373C12.6866 4.9174 12.4583 4.3663 12.4583 3.79167C12.4583 3.21703 12.6866 2.66593 13.0929 2.2596C13.4992 1.85327 14.0503 1.625 14.625 1.625C15.1996 1.625 15.7507 1.85327 16.157 2.2596C16.5634 2.66593 16.7917 3.21703 16.7917 3.79167C16.7917 4.3663 16.5634 4.9174 16.157 5.32373C15.7507 5.73006 15.1996 5.95833 14.625 5.95833ZM11.4053 20.2378L7.92348 24.3869L6.26382 22.9948L9.48782 19.1533L10.296 16.7917L12.2362 18.4167L11.4053 20.2378Z" fill="black"/>
</svg>
