<svg width="26" height="26" viewBox="0 0 26 26" fill="none" xmlns="http://www.w3.org/2000/svg">
<path d="M6.50004 20.5834H19.5V9.92016L13 4.01166L6.50004 9.92016V20.5834ZM20.5834 22.7501H5.41671C5.12939 22.7501 4.85384 22.6359 4.65067 22.4328C4.44751 22.2296 4.33337 21.9541 4.33337 21.6667V11.9167H1.08337L12.271 1.74641C12.4704 1.56493 12.7304 1.46436 13 1.46436C13.2697 1.46436 13.5297 1.56493 13.7291 1.74641L24.9167 11.9167H21.6667V21.6667C21.6667 21.9541 21.5526 22.2296 21.3494 22.4328C21.1462 22.6359 20.8707 22.7501 20.5834 22.7501ZM8.66671 10.8334C10.6779 10.8334 12.6068 11.6324 14.0289 13.0545C15.4511 14.4767 16.25 16.4055 16.25 18.4167H14.0834C14.0834 16.9802 13.5127 15.6024 12.4969 14.5866C11.481 13.5708 10.1033 13.0001 8.66671 13.0001V10.8334ZM8.66671 15.1667C9.52866 15.1667 10.3553 15.5092 10.9648 16.1186C11.5743 16.7281 11.9167 17.5548 11.9167 18.4167H8.66671V15.1667Z" fill="#313E47"/>
</svg>
