<svg width="28" height="25" viewBox="0 0 28 25" fill="none" xmlns="http://www.w3.org/2000/svg">
<path d="M13.9736 13.2282L18.9993 18.2527L17.3233 19.9287L15.1581 17.7635V24.3788H12.7891V17.7611L10.6239 19.9287L8.94793 18.2527L13.9736 13.2282ZM13.9736 0.689453C16.0073 0.68955 17.9701 1.43699 19.4887 2.78965C21.0073 4.14231 21.976 6.00588 22.2104 8.02603C23.6842 8.42794 24.9699 9.33499 25.8427 10.5887C26.7156 11.8423 27.1202 13.3629 26.9857 14.8845C26.8512 16.4062 26.1863 17.8323 25.1071 18.9134C24.0279 19.9946 22.603 20.6621 21.0816 20.7993V18.4138C21.6266 18.3359 22.1507 18.1503 22.6233 17.8677C23.0958 17.5851 23.5073 17.2112 23.8338 16.7679C24.1602 16.3245 24.3951 15.8206 24.5247 15.2854C24.6542 14.7503 24.6759 14.1947 24.5884 13.6511C24.501 13.1075 24.3061 12.5868 24.0152 12.1194C23.7243 11.6519 23.3431 11.2471 22.8941 10.9285C22.445 10.61 21.937 10.3841 21.3996 10.264C20.8623 10.1439 20.3064 10.132 19.7645 10.2291C19.95 9.36552 19.9399 8.47135 19.7351 7.61212C19.5303 6.75289 19.1359 5.95035 18.5807 5.2633C18.0256 4.57625 17.3237 4.02207 16.5267 3.64137C15.7296 3.26067 14.8575 3.06308 13.9742 3.06308C13.0909 3.06308 12.2188 3.26067 11.4217 3.64137C10.6247 4.02207 9.92285 4.57625 9.3677 5.2633C8.81255 5.95035 8.41812 6.75289 8.2133 7.61212C8.00847 8.47135 7.99845 9.36552 8.18395 10.2291C7.10331 10.0262 5.98631 10.2609 5.07869 10.8815C4.17106 11.5021 3.54716 12.4579 3.34422 13.5385C3.14129 14.6192 3.37595 15.7362 3.99658 16.6438C4.61721 17.5514 5.57298 18.1753 6.65362 18.3783L6.86682 18.4138V20.7993C5.34532 20.6623 3.92035 19.9949 2.84098 18.9139C1.76161 17.8328 1.09649 16.4068 0.961876 14.8851C0.827258 13.3633 1.2317 11.8427 2.10452 10.5889C2.97734 9.33518 4.26302 8.42802 5.73684 8.02603C5.97102 6.00578 6.93955 4.14206 8.45824 2.78935C9.97693 1.43664 11.9398 0.689291 13.9736 0.689453Z" fill="#313E47"/>
</svg>
