<svg width="24" height="25" viewBox="0 0 24 25" fill="none" xmlns="http://www.w3.org/2000/svg">
<path d="M9.99379 0.689453L18.638 3.39003C18.8791 3.4653 19.0898 3.61565 19.2394 3.81915C19.389 4.02265 19.4696 4.26864 19.4695 4.5212V6.61178H21.8384C22.1526 6.61178 22.4538 6.73657 22.676 6.9587C22.8981 7.18083 23.0229 7.4821 23.0229 7.79624V17.272C23.0229 17.5861 22.8981 17.8874 22.676 18.1095C22.4538 18.3316 22.1526 18.4564 21.8384 18.4564L18.0245 18.4576C17.5661 19.0617 17.0094 19.5947 16.3662 20.033L9.99379 24.3788L3.62136 20.0341C2.66494 19.382 1.88228 18.5062 1.34144 17.4827C0.800595 16.4592 0.517947 15.3191 0.518066 14.1616V4.5212C0.518209 4.26884 0.59895 4.02312 0.748519 3.81986C0.898088 3.6166 1.10867 3.46642 1.34956 3.39122L9.99379 0.689453ZM9.99379 3.16972L2.887 5.39178V14.1616C2.88683 14.8867 3.05312 15.6022 3.37306 16.253C3.693 16.9038 4.15805 17.4724 4.73239 17.9151L4.95626 18.0762L9.99379 21.5123L14.4734 18.4564H8.80932C8.49518 18.4564 8.19391 18.3316 7.97178 18.1095C7.74965 17.8874 7.62486 17.5861 7.62486 17.272V7.79624C7.62486 7.4821 7.74965 7.18083 7.97178 6.9587C8.19391 6.73657 8.49518 6.61178 8.80932 6.61178H17.1006V5.39178L9.99379 3.16972ZM9.99379 12.5341V16.0875H20.654V12.5341H9.99379ZM9.99379 10.1652H20.654V8.98071H9.99379V10.1652Z" fill="#313E47"/>
</svg>
