<svg width="18" height="18" viewBox="0 0 18 18" fill="none" xmlns="http://www.w3.org/2000/svg">
<path d="M2.33003 0.271002C2.99706 0.0329857 3.72061 0.00293055 4.40509 0.184806C5.08957 0.366682 5.70277 0.751931 6.16368 1.28966C6.62459 1.82739 6.91152 2.49229 6.98657 3.19653C7.06162 3.90077 6.92126 4.61122 6.58403 5.234L17.293 15.944L15.879 17.358L5.16903 6.648C4.5461 6.9839 3.83602 7.12319 3.13236 7.0475C2.4287 6.97181 1.76448 6.68471 1.22724 6.22401C0.689997 5.76332 0.304944 5.15066 0.122823 4.46677C-0.0592985 3.78289 -0.0299406 3.05987 0.207027 2.393L2.44403 4.63C2.5824 4.77327 2.74791 4.88754 2.93092 4.96615C3.11393 5.04477 3.31076 5.08615 3.50993 5.08788C3.70909 5.08961 3.90661 5.05166 4.09096 4.97623C4.2753 4.90081 4.44278 4.78943 4.58362 4.64859C4.72446 4.50776 4.83584 4.34028 4.91126 4.15593C4.98668 3.97159 5.02463 3.77407 5.0229 3.5749C5.02117 3.37573 4.97979 3.1789 4.90118 2.9959C4.82257 2.81289 4.70829 2.64737 4.56503 2.509L2.32903 0.270002L2.33003 0.271002ZM12.697 2.155L15.879 0.387002L17.293 1.801L15.525 4.983L13.757 5.337L11.637 7.458L10.222 6.044L12.343 3.923L12.697 2.155ZM5.97903 10.287L7.39303 11.701L2.09003 17.004C1.90973 17.1848 1.66709 17.2898 1.41186 17.2974C1.15663 17.3051 0.908141 17.2148 0.717343 17.0451C0.526545 16.8754 0.407891 16.6392 0.385706 16.3848C0.363521 16.1304 0.439486 15.8772 0.598027 15.677L0.676028 15.59L5.97903 10.287Z" fill="#313E47"/>
</svg>
