<svg width="19" height="22" viewBox="0 0 19 22" fill="none" xmlns="http://www.w3.org/2000/svg">
<path d="M11.1202 16.023L6.92121 13.733C6.373 14.3191 5.66119 14.7267 4.87828 14.9029C4.09537 15.0791 3.27756 15.0157 2.53113 14.7211C1.7847 14.4264 1.14417 13.914 0.692774 13.2505C0.241381 12.587 0 11.803 0 11.0005C0 10.198 0.241381 9.41408 0.692774 8.75058C1.14417 8.08707 1.7847 7.57467 2.53113 7.27998C3.27756 6.98529 4.09537 6.92193 4.87828 7.09813C5.66119 7.27434 6.373 7.68196 6.92121 8.26802L11.1212 5.97802C10.8828 5.03409 10.9968 4.03561 11.4418 3.16972C11.8869 2.30384 12.6325 1.63 13.5389 1.27452C14.4452 0.919042 15.4501 0.906325 16.3652 1.23875C17.2803 1.57118 18.0427 2.22594 18.5095 3.08028C18.9764 3.93463 19.1156 4.92991 18.9011 5.87957C18.6866 6.82922 18.1332 7.66806 17.3444 8.23883C16.5557 8.8096 15.5859 9.07313 14.6168 8.98001C13.6477 8.8869 12.7458 8.44353 12.0802 7.73302L7.88021 10.023C8.04141 10.6644 8.04141 11.3357 7.88021 11.977L12.0792 14.267C12.7448 13.5565 13.6467 13.1131 14.6158 13.02C15.5849 12.9269 16.5547 13.1904 17.3434 13.7612C18.1322 14.332 18.6856 15.1708 18.9001 16.1205C19.1146 17.0701 18.9754 18.0654 18.5085 18.9198C18.0417 19.7741 17.2793 20.4289 16.3642 20.7613C15.4491 21.0937 14.4442 21.081 13.5379 20.7255C12.6315 20.37 11.8859 19.6962 11.4408 18.8303C10.9958 17.9644 10.8818 16.9659 11.1202 16.022V16.023ZM4.00021 13C4.53064 13 5.03935 12.7893 5.41442 12.4142C5.78949 12.0392 6.00021 11.5305 6.00021 11C6.00021 10.4696 5.78949 9.96088 5.41442 9.58581C5.03935 9.21073 4.53064 9.00002 4.00021 9.00002C3.46977 9.00002 2.96107 9.21073 2.58599 9.58581C2.21092 9.96088 2.00021 10.4696 2.00021 11C2.00021 11.5305 2.21092 12.0392 2.58599 12.4142C2.96107 12.7893 3.46977 13 4.00021 13ZM15.0002 7.00002C15.5306 7.00002 16.0393 6.78931 16.4144 6.41423C16.7895 6.03916 17.0002 5.53045 17.0002 5.00002C17.0002 4.46959 16.7895 3.96088 16.4144 3.58581C16.0393 3.21073 15.5306 3.00002 15.0002 3.00002C14.4698 3.00002 13.9611 3.21073 13.586 3.58581C13.2109 3.96088 13.0002 4.46959 13.0002 5.00002C13.0002 5.53045 13.2109 6.03916 13.586 6.41423C13.9611 6.78931 14.4698 7.00002 15.0002 7.00002ZM15.0002 19C15.5306 19 16.0393 18.7893 16.4144 18.4142C16.7895 18.0392 17.0002 17.5305 17.0002 17C17.0002 16.4696 16.7895 15.9609 16.4144 15.5858C16.0393 15.2107 15.5306 15 15.0002 15C14.4698 15 13.9611 15.2107 13.586 15.5858C13.2109 15.9609 13.0002 16.4696 13.0002 17C13.0002 17.5305 13.2109 18.0392 13.586 18.4142C13.9611 18.7893 14.4698 19 15.0002 19Z" fill="#313E47"/>
</svg>
