<svg width="22" height="25" viewBox="0 0 22 25" fill="none" xmlns="http://www.w3.org/2000/svg">
<path d="M11.1115 18.4564C15.449 18.4564 19.2428 20.322 21.3062 23.1055L19.1244 24.1371C17.4448 22.1472 14.4836 20.8254 11.1115 20.8254C7.7393 20.8254 4.77814 22.1472 3.09857 24.1371L0.917969 23.1043C2.98131 20.3208 6.77396 18.4564 11.1115 18.4564ZM11.1115 0.689453C12.6822 0.689453 14.1885 1.31341 15.2992 2.42406C16.4098 3.53471 17.0338 5.04108 17.0338 6.61178V10.1652C17.0337 11.6913 16.4445 13.1585 15.389 14.2608C14.3335 15.3631 12.8932 16.0153 11.3685 16.0816L11.1115 16.0875C9.54078 16.0875 8.03441 15.4635 6.92376 14.3529C5.81311 13.2422 5.18915 11.7359 5.18915 10.1652V6.61178C5.18924 5.08564 5.77847 3.61844 6.83397 2.51616C7.88947 1.41388 9.32974 0.76161 10.8544 0.695376L11.1115 0.689453ZM11.1115 3.05838C10.2051 3.05833 9.33298 3.40463 8.67354 4.02643C8.01409 4.64822 7.61718 5.49851 7.564 6.40331L7.55808 6.61178V10.1652C7.55719 11.0901 7.917 11.979 8.56105 12.6429C9.2051 13.3067 10.0826 13.6933 11.0072 13.7205C11.9318 13.7476 12.8305 13.4132 13.5124 12.7882C14.1942 12.1633 14.6056 11.2971 14.6589 10.3736L14.6649 10.1652V6.61178C14.6649 5.66936 14.2905 4.76554 13.6241 4.09915C12.9577 3.43276 12.0539 3.05838 11.1115 3.05838Z" fill="#313E47"/>
</svg>
