<svg width="24" height="25" viewBox="0 0 24 25" fill="none" xmlns="http://www.w3.org/2000/svg">
<path d="M17.9584 2.87381H22.6962C23.0104 2.87381 23.3117 2.9986 23.5338 3.22073C23.7559 3.44286 23.8807 3.74414 23.8807 4.05828V23.0097C23.8807 23.3239 23.7559 23.6251 23.5338 23.8473C23.3117 24.0694 23.0104 24.1942 22.6962 24.1942H1.37587C1.06173 24.1942 0.760458 24.0694 0.538328 23.8473C0.316198 23.6251 0.191406 23.3239 0.191406 23.0097V4.05828C0.191406 3.74414 0.316198 3.44286 0.538328 3.22073C0.760458 2.9986 1.06173 2.87381 1.37587 2.87381H6.11373V0.504883H8.48266V2.87381H15.5895V0.504883H17.9584V2.87381ZM21.5118 12.3495H2.56034V21.8252H21.5118V12.3495ZM15.5895 5.24274H8.48266V7.61167H6.11373V5.24274H2.56034V9.9806H21.5118V5.24274H17.9584V7.61167H15.5895V5.24274ZM4.92927 14.7185H7.2982V17.0874H4.92927V14.7185ZM10.8516 14.7185H13.2205V17.0874H10.8516V14.7185ZM16.7739 14.7185H19.1428V17.0874H16.7739V14.7185Z" fill="#313E47"/>
</svg>
