
<svg id="Capa_1" enable-background="new 0 0 512 512" height="512" viewBox="0 0 512 512" width="512" xmlns="http://www.w3.org/2000/svg"><g><path d="m266.52 117.025c-1.658-.586-3.233-1.149-4.727-1.687v-31.88c3.889 1.198 6.585 3.184 7.911 5.075 3.172 4.522 9.409 5.616 13.93 2.443 4.521-3.172 5.615-9.408 2.443-13.93-4.692-6.688-13.193-12.271-24.284-14.09v-2.062c0-5.522-4.478-10-10-10s-10 4.478-10 10v2.821c-1.5.334-3.023.732-4.569 1.198-12.503 3.768-21.941 15.914-22.952 29.54-.998 13.456 6.164 25.149 19.161 31.279 1.837.866 4.709 2.061 8.36 3.486v38.194c-5.084-1.528-9.748-4.08-12.783-7.849-3.466-4.302-9.76-4.978-14.062-1.517-4.301 3.465-4.98 9.76-1.517 14.062 7.249 9.002 17.945 13.821 28.361 15.874v1.365c0 5.522 4.478 10 10 10s10-4.478 10-10v-.603c21.983-2.801 31.58-17.114 33.204-29.893 2.275-17.894-9.436-35.094-28.476-41.826zm-32.303-21.09c.364-4.904 3.531-9.577 7.576-11.416v23.045c-6.729-3.245-7.838-8.108-7.576-11.629zm40.939 60.397c-.787 6.195-5.585 10.495-13.363 12.144v-31.835c10.316 4.461 14.194 13.153 13.363 19.691z"/><path d="m108.686 448.212v-174.885h227.22c5.522 0 10-4.478 10-10s-4.478-10-10-10h-237.22c-5.522 0-10 4.478-10 10v194.885c0 5.522 4.478 10 10 10h237.22c5.522 0 10-4.478 10-10s-4.478-10-10-10z"/><path d="m457.092 310.296h-11.027v-90.757c0-5.522-4.478-10-10-10h-93.527c21.138-22.832 33.221-53.004 33.221-84.778 0-68.793-55.955-124.761-124.734-124.761s-124.733 55.968-124.733 124.761c0 31.775 12.083 61.947 33.221 84.778h-85.052c-16.296 0-29.553 13.26-29.553 29.558v243.346c0 16.297 13.257 29.557 29.553 29.557h361.604c5.522 0 10-4.478 10-10v-90.757h11.027c5.522 0 10-4.478 10-10v-80.947c0-5.523-4.478-10-10-10zm-310.8-185.535c0-57.766 46.983-104.761 104.733-104.761s104.733 46.995 104.733 104.761c0 33.596-16.091 65.062-43.193 84.778h-123.081c-27.101-19.716-43.192-51.182-43.192-84.778zm279.772 367.239h-351.603c-5.268 0-9.553-4.287-9.553-9.558v-243.345c0-5.271 4.285-9.558 9.553-9.558h351.604v80.757h-90.159c-5.522 0-10 4.478-10 10v80.947c0 5.522 4.478 10 10 10h90.159v80.757zm21.028-100.757h-101.187v-60.947h101.187z"/><path d="m379.395 371.028h16.163c5.522 0 10-4.478 10-10s-4.478-10-10-10h-16.163c-5.522 0-10 4.478-10 10s4.477 10 10 10z"/></g></svg>